<?xml version="1.0" encoding="UTF-8"?>
<!-- Generator: Adobe Illustrator 22.1.0, SVG Export Plug-In . SVG Version: 6.00 Build 0) -->
<?xml-model href="telegram.xsd"?>
<svg xmlns="http://www.w3.org/2000/svg" xmlns:xlink="http://www.w3.org/1999/xlink" id="Layer_1" x="0px" y="0px" viewBox="0 0 512 512" style="enable-background:new 0 0 512 512;" xml:space="preserve">
  <path d="M466.9,41c-7.2,0-14.8,1.2-22.6,3.7c-0.3,0.1-0.6,0.2-0.8,0.3L16.6,210.4c-0.9,0.4-1.8,0.8-2.6,1.4 c-1.3,0.9-12.5,8.8-13.9,23.4c-1,11.5,4.2,22.8,15.5,33.7C39.5,292,94.3,302,115.9,305.1l44.2,120.1c0.2,0.5,0.4,0.9,0.6,1.4 c3.6,7.2,14,19.4,29.9,19.4c10.6,0,21.4-5.3,31.9-15.9l39-39.1l105,74.1c0.1,0.1,0.2,0.1,0.3,0.2c1.4,0.9,8.9,5.6,19.2,5.6 c8.1,0,23.3-3.1,33.9-24.2c13.8-27.5,83.7-327.8,91.7-362c0.2-1,0.3-2,0.3-3C512,58.1,493,41,466.9,41z M396,434.7 c-2.1,4.3-5.6,9.4-9.8,9.4c-1.9,0-3.7-0.8-4.4-1.2l-113.9-80.4c-5.3-3.8-12.6-3.2-17.3,1.5l-47,47.1c-7.4,7.4-11.7,8-12.9,8 c-2.7,0-4.9-3.1-5.7-4.3l-46.6-126.6c-1.8-4.8-6.1-8.1-11.1-8.7c-19.6-2.2-74.4-12-93-29.9c-7.1-6.9-7.5-10.8-7.4-11.9 c0.1-1.3,0.9-2.4,1.5-3.1L452.7,70.2c5.1-1.5,9.8-2.3,14.2-2.3c4.1,0,17.3,0.9,18.2,12.5C454.2,213.3,405.3,416.1,396,434.7z" />
  <path d="M424.7,97L155.9,251.6c-5.7,3.3-8.2,10.2-5.9,16.4l40.3,107.6c1.9,4.9,6.4,8.3,11.7,8.7c0.3,0,0.6,0,0.9,0 c4.9,0,9.5-2.7,11.8-7.1l46-85.6l179.9-173.4c4.9-4.7,5.5-12.3,1.4-17.8C438,95.1,430.5,93.6,424.7,97z M240.6,273.7 c-1,1-1.9,2.1-2.5,3.3l-33,61.3l-25.9-69.2l164.2-94.4L240.6,273.7z" />
</svg>
