<?xml version="1.0" encoding="UTF-8"?>
<!-- Generator: Adobe Illustrator 22.1.0, SVG Export Plug-In . SVG Version: 6.00 Build 0) -->
<svg xmlns="http://www.w3.org/2000/svg" xmlns:xlink="http://www.w3.org/1999/xlink" id="Layer_1" x="0px" y="0px" viewBox="0 0 512 512" style="enable-background:new 0 0 512 512;" xml:space="preserve"> <path d="M412.6,405.6h70c9.5-0.6,17.6-5.8,22.5-14.4c5.6-10,5.6-22.5-0.1-33.4c-5.4-10.4-12.1-19.1-18.6-27 c-10.9-13.1-22.9-24.6-35.3-36.2c-1.4-1.3-2.8-2.6-4.3-4.1c-2.6-2.4-5.2-5-7.8-7.5l-0.5-0.5c-5.1-5-6.6-7.7-7.1-8.8l-0.3-0.6 l0.1-0.7c0.3-1.9,2.2-5.3,5.2-9.5c6-8.3,12.2-16.5,18.7-25.2l4.3-5.8c1.5-1.9,2.9-3.9,4.4-5.8c3.7-4.9,7.5-10,11.2-15l1.6-2.1 c11.8-16.3,24-33.2,30.7-54.3c1.2-3.9,4.9-15.5-1.3-25.7c-5.6-9.1-15.4-11.7-22.3-12.9c-3.6-0.6-6.9-0.7-9.1-0.7l-75.6-0.1 c-14.9-0.2-25.7,7.2-31.3,21.2l-0.4,0.9c-3.7,9.2-8.3,20.6-13.5,31.2c-9.2,18.7-22,42.7-39.7,62.3l-4.4,4.8v-6.9l-0.1-88 c0-0.5,0-1.2-0.2-1.9v-0.2c-1.3-9.6-3.7-27.6-28.2-32.5l-0.5-0.1c-0.5-0.1-1.3-0.2-2.3-0.2h-78.7c-16.6,0-25.6,7.9-32.2,15.6 c-5.6,6.4-7.2,12.8-5,19.1c2.2,6.2,7.3,10.1,15.7,11.8c5.7,1.1,9.6,3.6,10.9,12.1c2.6,17.4,2.9,36.3,1,59.6 c-0.2,2.6-0.5,4.9-0.9,6.9l-1,4.7l-3.3-3.5c-2.7-2.9-5.2-6.3-7.5-9.6l-1-1.4c-17.4-24.6-32-51.7-44.7-82.8 c-5.9-14.5-17.5-22.9-31.9-23c-12.1-0.1-23.8-0.2-35.2-0.2c-11.4,0-22.5,0.1-33.5,0.3c-11.9,0.2-20.3,4.1-25.1,11.6 c-4.7,7.4-4.7,17.1,0.1,27.8C36.6,223,64.3,272.5,96,315.4c22.7,30.6,45.4,51.8,71.5,66.8c27.9,15.9,59,23.7,95.1,23.7 c4,0,8.2-0.1,12.5-0.3c24.1-1,34.8-11.5,35.8-35.1c0.5-10.4,1.6-18.8,5.3-25.8l3.6-0.9c3.8,2.7,7.2,6.2,9.4,8.6 c0.7,0.8,1.5,1.7,2.2,2.5s1.4,1.6,2.2,2.4c0.7,0.8,1.4,1.6,2.1,2.3c0.8,0.9,1.6,1.7,2.3,2.6c5.1,5.7,12.1,13.6,19.4,21 c15.9,16.3,34.4,23.8,55,22.4H412.6z M378,363.1c-6-6.2-11.9-12.7-18.5-20l-0.5-0.6c-3-3.3-5.7-6.5-8.7-9.6 c-4.3-4.6-9.1-9.5-15.3-13.4c-10.2-6.7-19.1-6.5-24.7-5.1c-5.4,1.4-13.1,5.2-19,15.8c-7,12.7-8.5,26.2-9.1,38.8 c-0.1,2.1-0.3,3.8-0.5,5.2l-0.3,1.7l-1.7,0.3c-1.3,0.2-3.3,0.4-6.1,0.6c-4,0.1-7.8,0.2-11.4,0.2c-31,0-57.5-6.5-80.8-19.8 c-22.8-13.1-42.7-31.9-62.7-59C89.2,258.3,63,211.9,33.9,147.8l-1.6-3.5l3.8-0.1c21.1-0.3,41.7-0.3,63,0.1c2.7,0,4.4,1.4,6,5.2 c13.5,33.1,29.1,62.1,47.7,88.5l0.2,0.3c4.7,6.6,11.2,15.7,20.9,22.5c9.5,6.6,17.5,6.2,22.6,4.8h0.2c3.3-0.7,11.6-3.8,16.9-15.9 c2.6-6.1,4.2-13,5.1-22.4c2.2-25.2,1.8-46.2-1.2-66.3c-1.2-8.3-4.4-15.8-9.1-21.7l-3.3-4.1h72l0.3,0.1c0.5,0.1,0.8,0.2,1.2,0.4 l1.2,0.4l0.4,1.2c0.4,1.1,0.7,2.7,1,5.2v0.3l0.1,86.1c-0.2,11,5.2,30.3,20.5,36l0.7,0.2h0.3l0.4,0.1c14.9,4.5,24.8-6.4,29-11 l0.8-0.9c21.3-22.6,35.6-48.8,46.7-71.5c5.8-11.7,10.7-23.8,14.8-34.2c0.2-0.5,0.4-0.9,0.6-1.3c0-0.1,0.1-0.2,0.1-0.3l0.6-1.7 l2.9,0.1l82.2,0.1l-1.1,3.3c-5.4,16-15.4,29.9-26,44.7l-1.6,2.2c-2.9,4-6,8.2-9.1,12.3c-1.8,2.5-3.7,4.9-5.5,7.4l-3.3,4.3 c-7.9,10.3-14.9,19.8-20.8,28c-15.6,21.8-14.1,37.7,5.4,56.7c4.4,4.3,8.7,8.4,12.9,12.3c12.3,11.5,23.2,22,32.9,33.7 c4.7,5.7,10.7,13.2,14.8,21.2l0.1,0.1l0.2,0.4c0.4,0.8,0.7,1.7,0.9,2.7l0.6,3h-70.4C398.6,377.8,388.5,373.6,378,363.1z"/> </svg>