<svg width="22" height="19" viewBox="0 0 22 19" fill="none" xmlns="http://www.w3.org/2000/svg">
<path id="repeat" d="M5.90442 2.78249C7.67262 1.00089 10.0708 0 12.5714 0C15.072 0 17.4702 1.00089 19.2384 2.78249C21.0066 4.56408 22 6.98044 22 9.5C22 12.0196 21.0066 14.4359 19.2384 16.2175C17.4702 17.9991 15.072 19 12.5714 19C10.9105 19 9.36325 18.5755 8.01798 17.8233L9.05882 15.9795C10.101 16.5586 11.2989 16.8889 12.5714 16.8889C14.5163 16.8889 16.3816 16.1104 17.7569 14.7247C19.1321 13.339 19.9048 11.4597 19.9048 9.5C19.9048 7.54034 19.1321 5.66095 17.7569 4.27527C16.3816 2.88958 14.5163 2.11111 12.5714 2.11111C10.6265 2.11111 8.76125 2.88958 7.38598 4.27527C6.01071 5.66095 5.2381 7.54034 5.2381 9.5H8.38095L4.14857 13.7539L0 9.5H3.14286C3.14286 6.98044 4.13622 4.56408 5.90442 2.78249Z" fill="#3D3BFF"/>
</svg>
