<svg width="20" height="20" viewBox="0 0 20 20" fill="none" xmlns="http://www.w3.org/2000/svg">
<path d="M10.002 13.0625C9.16698 13.0625 8.36616 12.7398 7.77572 12.1655C7.18528 11.5912 6.85357 10.8122 6.85357 10C6.85357 9.18777 7.18528 8.40882 7.77572 7.83449C8.36616 7.26016 9.16698 6.9375 10.002 6.9375C10.837 6.9375 11.6378 7.26016 12.2283 7.83449C12.8187 8.40882 13.1504 9.18777 13.1504 10C13.1504 10.8122 12.8187 11.5912 12.2283 12.1655C11.6378 12.7398 10.837 13.0625 10.002 13.0625ZM16.6856 10.8488C16.7216 10.5688 16.7486 10.2887 16.7486 10C16.7486 9.71125 16.7216 9.4225 16.6856 9.125L18.5837 7.69875C18.7546 7.5675 18.7996 7.33125 18.6916 7.13875L16.8925 4.11125C16.7846 3.91875 16.5417 3.84 16.3438 3.91875L14.1039 4.79375C13.6362 4.4525 13.1504 4.155 12.5837 3.93625L12.2509 1.6175C12.2149 1.4075 12.026 1.25 11.8011 1.25H8.20289C7.97801 1.25 7.7891 1.4075 7.75312 1.6175L7.42029 3.93625C6.85357 4.155 6.36782 4.4525 5.90005 4.79375L3.66018 3.91875C3.46228 3.84 3.21941 3.91875 3.11146 4.11125L1.31237 7.13875C1.19543 7.33125 1.2494 7.5675 1.42031 7.69875L3.31836 9.125C3.28237 9.4225 3.25539 9.71125 3.25539 10C3.25539 10.2887 3.28237 10.5688 3.31836 10.8488L1.42031 12.3013C1.2494 12.4325 1.19543 12.6688 1.31237 12.8612L3.11146 15.8888C3.21941 16.0812 3.46228 16.1513 3.66018 16.0813L5.90005 15.1975C6.36782 15.5475 6.85357 15.845 7.42029 16.0638L7.75312 18.3825C7.7891 18.5925 7.97801 18.75 8.20289 18.75H11.8011C12.026 18.75 12.2149 18.5925 12.2509 18.3825L12.5837 16.0638C13.1504 15.8363 13.6362 15.5475 14.1039 15.1975L16.3438 16.0813C16.5417 16.1513 16.7846 16.0812 16.8925 15.8888L18.6916 12.8612C18.7996 12.6688 18.7546 12.4325 18.5837 12.3013L16.6856 10.8488Z" fill="white"/>
</svg>
