<?xml version="1.0" encoding="UTF-8"?>
<svg xmlns="http://www.w3.org/2000/svg" id="email" viewBox="0 0 470 470"> <defs> <style> .cls-1 { fill: #ff0363; } </style> </defs> <path id="Path_82" data-name="Path 82" d="M465.115,137.964a18.215,18.215,0,0,0-13.4-5.884H406.894V7.5a7.5,7.5,0,0,0-7.5-7.5H70.6a7.5,7.5,0,0,0-7.5,7.5V132.079H18.282A18.351,18.351,0,0,0,0,150.361V451.717A18.3,18.3,0,0,0,18.282,470H451.718A18.3,18.3,0,0,0,470,451.718V150.361a18.192,18.192,0,0,0-4.885-12.4ZM70.6,169.488a7.5,7.5,0,0,0,7.5-7.5V15H391.894V161.988a7.5,7.5,0,1,0,15,0V147.079H444.9L243.441,356.893a11.594,11.594,0,0,1-16.882,0L25.1,147.079H63.1v14.909A7.5,7.5,0,0,0,70.6,169.488ZM451.718,455H18.282A3.326,3.326,0,0,1,15,451.718V158.22L152.134,301.04,31.469,426.709A7.5,7.5,0,1,0,42.289,437.1L162.532,311.868l53.207,55.413a26.6,26.6,0,0,0,38.524,0l53.207-55.413,47.031,48.98a7.5,7.5,0,0,0,10.82-10.388l-47.453-49.42L455,158.22v293.5A3.326,3.326,0,0,1,451.718,455Z"/> <path id="Path_83" data-name="Path 83" d="M389.19,375.321a7.5,7.5,0,0,0-10.82,10.388L427.71,437.1a7.5,7.5,0,0,0,10.82-10.388Z"/> <path id="Path_84" data-name="Path 84" class="cls-1" d="M146.4,248h141.7a23.425,23.425,0,0,0,19.781-35.983,23.407,23.407,0,0,0,6.526-31.863,23.406,23.406,0,0,0,6.525-31.864,23.425,23.425,0,0,0-13.254-42.745H265.13c7.1-15.211,10.931-33.264,10.931-52.114a23.432,23.432,0,0,0-46.864,0,52.172,52.172,0,0,1-52.113,52.113H146.4a7.5,7.5,0,0,0-7.5,7.5V240.5a7.5,7.5,0,0,0,7.5,7.5ZM244.2,53.432a8.432,8.432,0,1,1,16.864,0c0,21.038-5.3,40.756-14.914,55.521a7.5,7.5,0,0,0,6.284,11.594h55.241a8.432,8.432,0,0,1,0,16.864H288.1a7.5,7.5,0,0,0,0,15h13.051a8.433,8.433,0,0,1,0,16.865H288.1a7.5,7.5,0,0,0,0,15h6.525a8.432,8.432,0,0,1,0,16.864H288.1a7.5,7.5,0,0,0,0,15,8.43,8.43,0,1,1,0,16.861H184.583V120.115A67.2,67.2,0,0,0,244.2,53.432Zm-90.3,67.113h15.687V233H153.9V120.545Z"/> </svg>