<?xml version="1.0" encoding="UTF-8"?>
<svg xmlns="http://www.w3.org/2000/svg" viewBox="0 0 411.906 470"> <defs> <style> .cls-1 { fill: #ff0363; } </style> </defs> <g id="funnel" transform="translate(-29.047)"> <path id="Path_85" data-name="Path 85" class="cls-1" d="M234.976,385.715a5.653,5.653,0,0,1-5.646-5.646,7.5,7.5,0,0,0-15,0,20.663,20.663,0,0,0,13.146,19.215V402.5a7.5,7.5,0,0,0,15,0v-3.217a20.664,20.664,0,0,0,13.147-19.216c0-14.462-11.776-19.988-17.437-22.644-6.914-3.244-8.808-5.192-8.808-9.063a5.646,5.646,0,1,1,11.292,0,7.5,7.5,0,0,0,15,0,20.663,20.663,0,0,0-13.146-19.215v-3.215a7.5,7.5,0,1,0-15,0v3.217a20.665,20.665,0,0,0-13.147,19.216c0,14.462,11.776,19.988,17.437,22.644,6.914,3.244,8.808,5.192,8.808,9.063A5.652,5.652,0,0,1,234.976,385.715Z"/> <path id="Path_86" data-name="Path 86" d="M235,258.43A105.785,105.785,0,1,0,340.785,364.215,105.9,105.9,0,0,0,235,258.43ZM235,455a90.785,90.785,0,1,1,90.785-90.785A90.887,90.887,0,0,1,235,455Z"/> <path id="Path_87" data-name="Path 87" class="cls-1" d="M235,288.43a75.89,75.89,0,0,0-73.921,59.138,7.5,7.5,0,0,0,14.633,3.295,60.787,60.787,0,1,1,0,26.7,7.5,7.5,0,0,0-14.635,3.295A75.78,75.78,0,1,0,235,288.43Z"/> <path id="Path_88" data-name="Path 88" d="M433.453,0H36.547a7.5,7.5,0,0,0-7.5,7.5v20c0,7.75,4.556,17.256,10.6,22.11l112.361,90.312c4.652,3.74,8.89,12.582,8.89,18.552V235.93a7.5,7.5,0,0,0,7.5,7.5H301.606a7.5,7.5,0,0,0,7.5-7.5V158.474c0-5.97,4.237-14.812,8.89-18.552L430.356,49.61c6.041-4.854,10.6-14.36,10.6-22.11V7.5A7.5,7.5,0,0,0,433.453,0Zm-7.5,27.5c0,3.232-2.474,8.394-4.993,10.419L308.6,128.23c-8.262,6.641-14.492,19.643-14.492,30.243v69.956H175.895V158.473c0-10.6-6.23-23.6-14.493-30.243L49.04,37.919c-2.52-2.025-4.993-7.187-4.993-10.419V15H425.953Z"/> <path id="Path_89" data-name="Path 89" d="M144.435,45H385.566a7.5,7.5,0,0,0,0-15H144.435a7.5,7.5,0,0,0,0,15Z"/> <path id="Path_90" data-name="Path 90" d="M84.435,45h30a7.5,7.5,0,0,0,0-15h-30a7.5,7.5,0,0,0,0,15Z"/> <path id="Path_91" data-name="Path 91" d="M273.046,138.775H196.954a7.5,7.5,0,0,0,0,15h76.092a7.5,7.5,0,0,0,0-15Z"/> </g> </svg>