<?xml version="1.0" encoding="UTF-8"?>
<svg xmlns="http://www.w3.org/2000/svg" id="network" viewBox="0 0 512 512"> <defs> <style> .cls-1 { fill: #ff0363; } </style> </defs> <g id="Group_86" data-name="Group 86"> <g id="Group_85" data-name="Group 85"> <path id="Path_36" data-name="Path 36" class="cls-1" d="M434.355,341.333h-49.51c-14.583,0-26.445,11.546-26.445,25.728v22.494a8.54,8.54,0,0,0,4.258,7.39,93.39,93.39,0,0,0,93.884,0,8.525,8.525,0,0,0,4.258-7.381V367.07C460.8,352.879,448.939,341.333,434.355,341.333Zm9.378,43.136a77.376,77.376,0,0,1-68.267,0v-17.4c0-4.779,4.207-8.67,9.378-8.67h49.51c5.171,0,9.378,3.891,9.378,8.67v17.4Z"/> </g> </g> <g id="Group_92" data-name="Group 92"> <g id="Group_91" data-name="Group 91"> <path id="Path_39" data-name="Path 39" class="cls-1" d="M229.555,443.733h-49.51c-14.583,0-26.445,11.546-26.445,25.728v22.494a8.54,8.54,0,0,0,4.258,7.39,93.39,93.39,0,0,0,93.884,0A8.524,8.524,0,0,0,256,491.964V469.47C256,455.279,244.139,443.733,229.555,443.733Zm9.378,43.136a77.376,77.376,0,0,1-68.267,0v-17.4c0-4.779,4.207-8.67,9.378-8.67h49.51c5.171,0,9.378,3.891,9.378,8.67v17.4Z"/> </g> </g> <g id="Group_98" data-name="Group 98"> <g id="Group_97" data-name="Group 97"> <path id="Path_42" data-name="Path 42" class="cls-1" d="M118.622,230.4H69.112c-14.583,0-26.445,11.546-26.445,25.728v22.494a8.54,8.54,0,0,0,4.258,7.39,93.39,93.39,0,0,0,93.884,0,8.525,8.525,0,0,0,4.258-7.381V256.137C145.067,241.946,133.205,230.4,118.622,230.4ZM128,273.536a77.376,77.376,0,0,1-68.267,0v-17.4c0-4.779,4.207-8.67,9.378-8.67h49.51c5.171,0,9.378,3.891,9.378,8.67v17.4Z"/> </g> </g> <g id="Group_104" data-name="Group 104"> <g id="Group_103" data-name="Group 103"> <path id="Path_45" data-name="Path 45" class="cls-1" d="M323.422,119.467h-49.51c-14.583,0-26.445,11.546-26.445,25.728v22.494a8.54,8.54,0,0,0,4.258,7.39,93.39,93.39,0,0,0,93.884,0,8.525,8.525,0,0,0,4.258-7.381V145.2C349.867,131.012,338.005,119.467,323.422,119.467ZM332.8,162.6a77.376,77.376,0,0,1-68.267,0V145.2c0-4.779,4.207-8.67,9.378-8.67h49.51c5.171,0,9.378,3.891,9.378,8.67v17.4Z"/> </g> </g> <g id="Group_68" data-name="Group 68"> <g id="Group_67" data-name="Group 67"> <path id="Path_27" data-name="Path 27" d="M477.867,102.4A34.133,34.133,0,1,0,512,136.533,34.167,34.167,0,0,0,477.867,102.4Zm0,51.2a17.067,17.067,0,1,1,17.067-17.067A17.084,17.084,0,0,1,477.867,153.6Z"/> </g> </g> <g id="Group_70" data-name="Group 70"> <g id="Group_69" data-name="Group 69"> <path id="Path_28" data-name="Path 28" d="M34.133,384a34.133,34.133,0,1,0,34.133,34.133A34.168,34.168,0,0,0,34.133,384Zm0,51.2A17.067,17.067,0,1,1,51.2,418.133,17.084,17.084,0,0,1,34.133,435.2Z"/> </g> </g> <g id="Group_72" data-name="Group 72"> <g id="Group_71" data-name="Group 71"> <path id="Path_29" data-name="Path 29" d="M461.321,113.186,387.7,77.645a8.532,8.532,0,0,0-7.415,15.369l73.617,35.541a8.532,8.532,0,0,0,7.415-15.369Z"/> </g> </g> <g id="Group_74" data-name="Group 74"> <g id="Group_73" data-name="Group 73"> <path id="Path_30" data-name="Path 30" d="M384,443.733a34.133,34.133,0,1,0,34.133,34.134A34.167,34.167,0,0,0,384,443.733Zm0,51.2a17.067,17.067,0,1,1,17.067-17.066A17.084,17.084,0,0,1,384,494.933Z"/> </g> </g> <g id="Group_76" data-name="Group 76"> <g id="Group_75" data-name="Group 75"> <path id="Path_31" data-name="Path 31" d="M367.454,454.52l-73.617-35.541a8.532,8.532,0,1,0-7.415,15.369l73.617,35.541a8.532,8.532,0,0,0,7.415-15.369Z"/> </g> </g> <g id="Group_78" data-name="Group 78"> <g id="Group_77" data-name="Group 77"> <path id="Path_32" data-name="Path 32" d="M256,230.4a34.133,34.133,0,1,0,34.133,34.133A34.167,34.167,0,0,0,256,230.4Zm0,51.2a17.067,17.067,0,1,1,17.067-17.067A17.084,17.084,0,0,1,256,281.6Z"/> </g> </g> <g id="Group_80" data-name="Group 80"> <g id="Group_79" data-name="Group 79"> <path id="Path_33" data-name="Path 33" d="M241,242.142l-56.55-44.075a8.537,8.537,0,0,0-10.5,13.466l56.55,44.075A8.537,8.537,0,1,0,241,242.142Z"/> </g> </g> <g id="Group_82" data-name="Group 82"> <g id="Group_81" data-name="Group 81"> <path id="Path_34" data-name="Path 34" d="M409.6,221.867a93.867,93.867,0,1,0,93.867,93.867A93.978,93.978,0,0,0,409.6,221.867Zm0,170.666a76.8,76.8,0,1,1,76.8-76.8A76.883,76.883,0,0,1,409.6,392.533Z"/> </g> </g> <g id="Group_84" data-name="Group 84"> <g id="Group_83" data-name="Group 83"> <path id="Path_35" data-name="Path 35" class="cls-1" d="M409.6,256a34.133,34.133,0,1,0,34.133,34.133A34.167,34.167,0,0,0,409.6,256Zm0,51.2a17.067,17.067,0,1,1,17.067-17.067A17.084,17.084,0,0,1,409.6,307.2Z"/> </g> </g> <g id="Group_88" data-name="Group 88"> <g id="Group_87" data-name="Group 87"> <path id="Path_37" data-name="Path 37" d="M204.8,324.267a93.867,93.867,0,1,0,93.867,93.866A93.978,93.978,0,0,0,204.8,324.267Zm0,170.666a76.8,76.8,0,1,1,76.8-76.8A76.883,76.883,0,0,1,204.8,494.933Z"/> </g> </g> <g id="Group_90" data-name="Group 90"> <g id="Group_89" data-name="Group 89"> <path id="Path_38" data-name="Path 38" class="cls-1" d="M204.8,358.4a34.133,34.133,0,1,0,34.133,34.133A34.167,34.167,0,0,0,204.8,358.4Zm0,51.2a17.067,17.067,0,1,1,17.067-17.067A17.084,17.084,0,0,1,204.8,409.6Z"/> </g> </g> <g id="Group_94" data-name="Group 94"> <g id="Group_93" data-name="Group 93"> <path id="Path_40" data-name="Path 40" d="M93.867,110.933A93.867,93.867,0,1,0,187.734,204.8,93.978,93.978,0,0,0,93.867,110.933Zm0,170.667a76.8,76.8,0,1,1,76.8-76.8A76.883,76.883,0,0,1,93.867,281.6Z"/> </g> </g> <g id="Group_96" data-name="Group 96"> <g id="Group_95" data-name="Group 95"> <path id="Path_41" data-name="Path 41" class="cls-1" d="M93.867,145.067A34.133,34.133,0,1,0,128,179.2,34.167,34.167,0,0,0,93.867,145.067Zm0,51.2A17.067,17.067,0,1,1,110.934,179.2,17.084,17.084,0,0,1,93.867,196.267Z"/> </g> </g> <g id="Group_100" data-name="Group 100"> <g id="Group_99" data-name="Group 99"> <path id="Path_43" data-name="Path 43" d="M298.667,0a93.867,93.867,0,1,0,93.867,93.867A93.978,93.978,0,0,0,298.667,0Zm0,170.667a76.8,76.8,0,1,1,76.8-76.8A76.883,76.883,0,0,1,298.667,170.667Z"/> </g> </g> <g id="Group_102" data-name="Group 102"> <g id="Group_101" data-name="Group 101"> <path id="Path_44" data-name="Path 44" class="cls-1" d="M298.667,34.133A34.133,34.133,0,1,0,332.8,68.267,34.167,34.167,0,0,0,298.667,34.133Zm0,51.2a17.067,17.067,0,1,1,17.067-17.067A17.084,17.084,0,0,1,298.667,85.333Z"/> </g> </g> <g id="Group_106" data-name="Group 106"> <g id="Group_105" data-name="Group 105"> <path id="Path_46" data-name="Path 46" d="M219.827,88.311a8.546,8.546,0,0,0-12.032-.93l-59.136,50.6a8.53,8.53,0,1,0,11.093,12.962l59.136-50.6A8.53,8.53,0,0,0,219.827,88.311Z"/> </g> </g> <g id="Group_108" data-name="Group 108"> <g id="Group_107" data-name="Group 107"> <path id="Path_47" data-name="Path 47" d="M407.893,225.289l-51.2-68.267a8.531,8.531,0,0,0-13.654,10.231l51.2,68.267a8.531,8.531,0,0,0,13.654-10.231Z"/> </g> </g> <g id="Group_110" data-name="Group 110"> <g id="Group_109" data-name="Group 109"> <path id="Path_48" data-name="Path 48" d="M337.86,343.953a8.535,8.535,0,0,0-11.947-1.707l-47.667,35.746a8.53,8.53,0,0,0,10.24,13.644l47.667-35.746A8.523,8.523,0,0,0,337.86,343.953Z"/> </g> </g> <g id="Group_112" data-name="Group 112"> <g id="Group_111" data-name="Group 111"> <path id="Path_49" data-name="Path 49" d="M119.467,409.6H59.733a8.533,8.533,0,1,0,0,17.066h59.733a8.533,8.533,0,0,0,0-17.066Z"/> </g> </g> <g id="Group_114" data-name="Group 114"> <g id="Group_113" data-name="Group 113"> <path id="Path_50" data-name="Path 50" d="M93.867,0A34.133,34.133,0,1,0,128,34.133,34.168,34.168,0,0,0,93.867,0Zm0,51.2a17.067,17.067,0,1,1,17.067-17.067A17.084,17.084,0,0,1,93.867,51.2Z"/> </g> </g> <g id="Group_116" data-name="Group 116"> <g id="Group_115" data-name="Group 115"> <path id="Path_51" data-name="Path 51" d="M93.867,51.2a8.531,8.531,0,0,0-8.533,8.533v59.733a8.533,8.533,0,1,0,17.066,0V59.733A8.531,8.531,0,0,0,93.867,51.2Z"/> </g> </g> </svg>