<?xml version="1.0" encoding="UTF-8"?>
<svg xmlns="http://www.w3.org/2000/svg" viewBox="0 0 470.465 470"> <defs> <style> .cls-1 { fill: #ff0363; } </style> </defs> <g id="pay-per-click" transform="translate(0 -0.231)"> <path id="Path_92" data-name="Path 92" d="M363.9,127.232c-78.652,0-106.56,51.124-106.56,94.9V375.327c0,43.78,27.908,94.9,106.56,94.9s106.56-51.124,106.56-94.9V222.137c0-43.781-27.908-94.9-106.56-94.9Zm91.56,248.1c0,9.209-1.77,32.705-18.162,51.934-15.822,18.56-40.517,27.971-73.4,27.971s-57.576-9.411-73.4-27.971c-16.393-19.229-18.162-42.725-18.162-51.934V222.137c0-9.209,1.77-32.705,18.162-51.934,15.822-18.56,40.517-27.971,73.4-27.971s57.576,9.411,73.4,27.971c16.393,19.229,18.162,42.725,18.162,51.934Z"/> <path id="Path_93" data-name="Path 93" d="M299.375,15.232a57.1,57.1,0,0,1,57.03,57.03v32.47a7.5,7.5,0,0,0,15,0V72.262A72.112,72.112,0,0,0,299.375.232c-39.718,0-72.03,32.141-72.03,71.647V271.584c0,31.235-25.583,56.647-57.03,56.647a57.1,57.1,0,0,1-57.03-57.03V211.532a105.771,105.771,0,1,0-15,0V271.2a72.112,72.112,0,0,0,72.03,72.03c39.717,0,72.03-32.141,72.03-71.647V71.88c0-31.235,25.583-56.648,57.03-56.648ZM15,106.018A90.785,90.785,0,1,1,105.785,196.8,90.887,90.887,0,0,1,15,106.018Z"/> <path id="Path_94" data-name="Path 94" class="cls-1" d="M105.761,127.518a5.653,5.653,0,0,1-5.646-5.646,7.5,7.5,0,0,0-15,0,20.663,20.663,0,0,0,13.146,19.215V144.3a7.5,7.5,0,0,0,15,0v-3.217a20.664,20.664,0,0,0,13.147-19.216c0-14.463-11.777-19.988-17.437-22.644-6.915-3.244-8.808-5.192-8.808-9.063a5.646,5.646,0,0,1,11.292,0,7.5,7.5,0,0,0,15,0A20.663,20.663,0,0,0,113.309,70.95V67.735a7.5,7.5,0,0,0-15,0V70.95A20.664,20.664,0,0,0,85.162,90.166c0,14.462,11.777,19.988,17.437,22.644,6.915,3.244,8.808,5.192,8.808,9.063a5.653,5.653,0,0,1-5.646,5.645Z"/> <path id="Path_95" data-name="Path 95" class="cls-1" d="M181.57,106.018A75.784,75.784,0,0,0,31.863,89.37,7.5,7.5,0,0,0,46.5,92.665a60.785,60.785,0,1,1,0,26.7,7.5,7.5,0,0,0-14.634,3.295A75.778,75.778,0,0,0,181.57,106.018Z"/> <path id="Path_96" data-name="Path 96" d="M371.4,291.232V265.157a26.857,26.857,0,0,0,19.315-25.74v-35.6a26.857,26.857,0,0,0-19.315-25.74V164.732a7.5,7.5,0,0,0-15,0v13.347a26.857,26.857,0,0,0-19.315,25.74v35.6a26.857,26.857,0,0,0,19.315,25.74v26.075h-61.56a7.5,7.5,0,0,0,0,15h138.12a7.5,7.5,0,0,0,0-15H371.4Zm-19.316-51.815v-35.6a11.815,11.815,0,1,1,23.63,0v35.6a11.815,11.815,0,0,1-23.63,0Z"/> </g> </svg>