<?xml version="1.0" encoding="UTF-8"?>
<svg xmlns="http://www.w3.org/2000/svg" viewBox="0 0 470.001 470"> <defs> <style> .cls-1 { fill: #ff0363; } </style> </defs> <g id="customer" transform="translate(0.001)"> <path id="Path_76" data-name="Path 76" d="M235,148.009A74,74,0,1,0,161,74,74.088,74.088,0,0,0,235,148.009ZM235,15a59,59,0,1,1-59,59A59.071,59.071,0,0,1,235,15Z"/> <path id="Path_77" data-name="Path 77" d="M235,178.009A113.183,113.183,0,0,1,347.793,283.548H174.46a7.5,7.5,0,0,0,0,15H355.54a7.5,7.5,0,0,0,7.5-7.5,128.04,128.04,0,0,0-256.08,0,7.5,7.5,0,0,0,7.5,7.5h30a7.5,7.5,0,0,0,0-15H122.206A113.185,113.185,0,0,1,235,178.009Z"/> <path id="Path_78" data-name="Path 78" d="M140.408,377.712l-41.143-6.9L79.984,333.812a7.5,7.5,0,0,0-13.3,0L47.4,370.807l-41.143,6.9a7.5,7.5,0,0,0-4.111,12.65l29.227,29.77L25.227,461.4a7.5,7.5,0,0,0,10.761,7.819l37.344-18.6,37.344,18.6a7.5,7.5,0,0,0,10.761-7.82l-6.147-41.263,29.227-29.77a7.5,7.5,0,0,0-4.109-12.649Zm-38.437,34.577a7.5,7.5,0,0,0-2.066,6.359l4.577,30.723L76.677,435.524a7.5,7.5,0,0,0-6.687,0L42.184,449.371l4.577-30.723a7.5,7.5,0,0,0-2.066-6.359L22.933,390.123l30.634-5.142a7.5,7.5,0,0,0,5.41-3.931L73.333,353.5,87.689,381.05a7.5,7.5,0,0,0,5.41,3.931l30.634,5.142-21.762,22.166Z"/> <path id="Path_79" data-name="Path 79" d="M302.075,377.712l-41.143-6.9-19.281-36.995a7.5,7.5,0,0,0-13.3,0l-19.281,36.995-41.143,6.9a7.5,7.5,0,0,0-4.111,12.65l29.227,29.77L186.9,461.4a7.5,7.5,0,0,0,10.761,7.819L235,450.617l37.344,18.6a7.5,7.5,0,0,0,10.761-7.82l-6.146-41.263,29.227-29.77a7.5,7.5,0,0,0-4.111-12.649Zm-38.437,34.577a7.5,7.5,0,0,0-2.066,6.359l4.576,30.723-27.8-13.847a7.5,7.5,0,0,0-6.686,0l-27.8,13.847,4.576-30.723a7.5,7.5,0,0,0-2.066-6.359L184.6,390.123l30.634-5.142a7.5,7.5,0,0,0,5.41-3.931L235,353.5l14.356,27.546a7.5,7.5,0,0,0,5.41,3.931l30.634,5.142-21.762,22.165Z"/> <path id="Path_80" data-name="Path 80" d="M469.633,382.791a7.5,7.5,0,0,0-5.892-5.079l-41.143-6.9-19.281-36.995a7.5,7.5,0,0,0-13.3,0l-19.281,36.995-41.143,6.9a7.5,7.5,0,0,0-4.111,12.65l29.227,29.77-6.147,41.263a7.5,7.5,0,0,0,10.761,7.819l37.344-18.6,37.344,18.6a7.5,7.5,0,0,0,10.761-7.82l-6.147-41.263,29.227-29.77a7.493,7.493,0,0,0,1.783-7.57Zm-44.328,29.5a7.5,7.5,0,0,0-2.066,6.359l4.577,30.723L400.01,435.524a7.5,7.5,0,0,0-6.686,0l-27.8,13.847,4.577-30.723a7.5,7.5,0,0,0-2.066-6.359l-21.762-22.166,30.634-5.142a7.5,7.5,0,0,0,5.41-3.931L396.668,353.5l14.356,27.546a7.5,7.5,0,0,0,5.41,3.931l30.634,5.142L425.3,412.289Z"/> <path id="Path_81" data-name="Path 81" class="cls-1" d="M235,108.009a34,34,0,0,0,25.66-11.721,7.5,7.5,0,0,0-11.32-9.842,18.948,18.948,0,0,1-28.68,0,7.5,7.5,0,1,0-11.32,9.842A34.006,34.006,0,0,0,235,108.009Z"/> </g> </svg>