<?xml version="1.0" encoding="UTF-8"?>
<svg xmlns="http://www.w3.org/2000/svg" viewBox="0 0 512.002 512.003"> <defs> <style> .cls-1 { fill: #ff0363; } </style> </defs> <g id="radar" transform="translate(0 0.001)"> <g id="Group_118" data-name="Group 118"> <g id="Group_117" data-name="Group 117"> <path id="Path_52" data-name="Path 52" d="M509.5,2.5a8.523,8.523,0,0,0-12.066,0L249.967,249.969a8.532,8.532,0,1,0,12.066,12.066L509.5,14.569A8.526,8.526,0,0,0,509.5,2.5Z"/> </g> </g> <g id="Group_120" data-name="Group 120"> <g id="Group_119" data-name="Group 119"> <path id="Path_53" data-name="Path 53" d="M249.967,262.035a8.523,8.523,0,0,0,12.066,0L437.018,87.051a8.529,8.529,0,0,0,0-12.066A254.332,254.332,0,0,0,256,0C114.842,0,0,114.844,0,256S114.842,512,256,512a254.676,254.676,0,0,0,93.611-17.664,8.533,8.533,0,1,0-6.247-15.881A237.64,237.64,0,0,1,256,494.935C124.254,494.935,17.067,387.748,17.067,256S124.254,17.069,256,17.069a237.232,237.232,0,0,1,162.816,64.06L249.967,249.969A8.523,8.523,0,0,0,249.967,262.035Z"/> </g> </g> <g id="Group_122" data-name="Group 122"> <g id="Group_121" data-name="Group 121"> <path id="Path_54" data-name="Path 54" d="M249.967,262.035a8.523,8.523,0,0,0,12.066,0L400.751,123.317a8.523,8.523,0,0,0,0-12.066A203.41,203.41,0,0,0,256,51.2C143.07,51.2,51.2,143.08,51.2,256S143.07,460.8,256,460.8a205.043,205.043,0,0,0,35.627-3.106,8.532,8.532,0,1,0-2.969-16.8A188.544,188.544,0,0,1,256,443.735C152.483,443.735,68.268,359.52,68.268,256S152.482,68.269,256,68.269a186.274,186.274,0,0,1,126.515,49.152L249.967,249.969A8.523,8.523,0,0,0,249.967,262.035Z"/> </g> </g> <g id="Group_124" data-name="Group 124"> <g id="Group_123" data-name="Group 123"> <path id="Path_55" data-name="Path 55" d="M328.38,183.631A102.36,102.36,0,1,0,197.2,339.782a8.412,8.412,0,0,0,4.9,1.562,8.529,8.529,0,0,0,4.915-15.505A85.312,85.312,0,0,1,256,170.669a84.665,84.665,0,0,1,53.99,19.285l-60.015,60.015a8.532,8.532,0,0,0,12.066,12.066L328.379,195.7A8.538,8.538,0,0,0,328.38,183.631Z"/> </g> </g> <g id="Group_126" data-name="Group 126"> <g id="Group_125" data-name="Group 125"> <path id="Path_56" data-name="Path 56" d="M223.881,388.73a136.506,136.506,0,0,1-98.074-173.8,8.535,8.535,0,0,0-16.273-5.154A153.576,153.576,0,0,0,219.861,405.311a8.531,8.531,0,1,0,4.02-16.581Z"/> </g> </g> <g id="Group_128" data-name="Group 128"> <g id="Group_127" data-name="Group 127"> <path id="Path_57" data-name="Path 57" d="M364.561,147.433a153.428,153.428,0,0,0-235.614,22.358,8.535,8.535,0,1,0,14.115,9.6A136.361,136.361,0,0,1,352.5,159.5a8.532,8.532,0,1,0,12.065-12.066Z"/> </g> </g> <g id="Group_130" data-name="Group 130"> <g id="Group_129" data-name="Group 129"> <path id="Path_58" data-name="Path 58" class="cls-1" d="M384,281.6a34.133,34.133,0,1,0,34.133,34.133A34.167,34.167,0,0,0,384,281.6Zm0,51.2a17.067,17.067,0,1,1,17.067-17.067A17.084,17.084,0,0,1,384,332.8Z"/> </g> </g> <g id="Group_132" data-name="Group 132"> <g id="Group_131" data-name="Group 131"> <path id="Path_59" data-name="Path 59" class="cls-1" d="M477.867,162.135A34.133,34.133,0,1,0,512,196.269,34.167,34.167,0,0,0,477.867,162.135Zm0,51.2a17.067,17.067,0,1,1,17.067-17.067A17.084,17.084,0,0,1,477.867,213.336Z"/> </g> </g> <g id="Group_134" data-name="Group 134"> <g id="Group_133" data-name="Group 133"> <path id="Path_60" data-name="Path 60" class="cls-1" d="M435.2,443.735a34.133,34.133,0,1,0,34.133,34.133A34.167,34.167,0,0,0,435.2,443.735Zm0,51.2a17.067,17.067,0,1,1,17.067-17.067A17.084,17.084,0,0,1,435.2,494.935Z"/> </g> </g> <g id="Group_136" data-name="Group 136"> <g id="Group_135" data-name="Group 135"> <path id="Path_61" data-name="Path 61" d="M256,204.8a51.2,51.2,0,0,0,0,102.4,8.533,8.533,0,1,0,0-17.066A34.133,34.133,0,1,1,290.133,256a8.533,8.533,0,0,0,17.066,0A51.256,51.256,0,0,0,256,204.8Z"/> </g> </g> <g id="Group_138" data-name="Group 138"> <g id="Group_137" data-name="Group 137"> <path id="Path_62" data-name="Path 62" class="cls-1" d="M123.733,162.135A29.867,29.867,0,1,0,153.6,192,29.9,29.9,0,0,0,123.733,162.135Zm0,42.667a12.8,12.8,0,1,1,12.8-12.8A12.816,12.816,0,0,1,123.733,204.8Z"/> </g> </g> </g> </svg>