<?xml version="1.0" encoding="UTF-8"?>
<svg xmlns="http://www.w3.org/2000/svg" id="scheme" viewBox="0 0 512 512"> <defs> <style> .cls-1 { fill: #ff0363; } </style> </defs> <g id="Group_150" data-name="Group 150"> <g id="Group_149" data-name="Group 149"> <path id="Path_68" data-name="Path 68" class="cls-1" d="M435.2,281.6a34.133,34.133,0,1,0,34.133,34.133A34.167,34.167,0,0,0,435.2,281.6Zm0,51.2a17.067,17.067,0,1,1,17.067-17.067A17.084,17.084,0,0,1,435.2,332.8Z"/> </g> </g> <g id="Group_152" data-name="Group 152"> <g id="Group_151" data-name="Group 151"> <path id="Path_69" data-name="Path 69" class="cls-1" d="M477.867,93.867A34.133,34.133,0,1,0,512,128,34.167,34.167,0,0,0,477.867,93.867Zm0,51.2A17.067,17.067,0,1,1,494.934,128,17.084,17.084,0,0,1,477.867,145.067Z"/> </g> </g> <g id="Group_154" data-name="Group 154"> <g id="Group_153" data-name="Group 153"> <path id="Path_70" data-name="Path 70" class="cls-1" d="M145.067,392.533A34.133,34.133,0,1,0,179.2,426.666,34.167,34.167,0,0,0,145.067,392.533Zm0,51.2a17.067,17.067,0,1,1,17.067-17.067A17.084,17.084,0,0,1,145.067,443.733Z"/> </g> </g> <g id="Group_158" data-name="Group 158"> <g id="Group_157" data-name="Group 157"> <rect id="Rectangle_14" data-name="Rectangle 14" class="cls-1" width="17.067" height="97.3" transform="translate(168.441 443.434) rotate(-74.746)"/> </g> </g> <g id="Group_166" data-name="Group 166"> <g id="Group_165" data-name="Group 165"> <rect id="Rectangle_18" data-name="Rectangle 18" class="cls-1" width="17.066" height="68.775" transform="translate(396.798 84.255) rotate(-60.256)"/> </g> </g> <g id="Group_168" data-name="Group 168"> <g id="Group_167" data-name="Group 167"> <rect id="Rectangle_19" data-name="Rectangle 19" class="cls-1" width="17.067" height="87.861" transform="translate(328.617 263.425) rotate(-60.949)"/> </g> </g> <g id="Group_140" data-name="Group 140"> <g id="Group_139" data-name="Group 139"> <path id="Path_63" data-name="Path 63" d="M256,170.667A85.333,85.333,0,1,0,341.333,256,85.43,85.43,0,0,0,256,170.667Zm0,153.6A68.267,68.267,0,1,1,324.267,256,68.346,68.346,0,0,1,256,324.267Z"/> </g> </g> <g id="Group_142" data-name="Group 142"> <g id="Group_141" data-name="Group 141"> <path id="Path_64" data-name="Path 64" d="M128,0a51.2,51.2,0,1,0,51.2,51.2A51.257,51.257,0,0,0,128,0Zm0,85.333A34.133,34.133,0,1,1,162.133,51.2,34.167,34.167,0,0,1,128,85.333Z"/> </g> </g> <g id="Group_144" data-name="Group 144"> <g id="Group_143" data-name="Group 143"> <path id="Path_65" data-name="Path 65" d="M366.933,0a51.2,51.2,0,1,0,51.2,51.2A51.257,51.257,0,0,0,366.933,0Zm0,85.333A34.133,34.133,0,1,1,401.066,51.2,34.167,34.167,0,0,1,366.933,85.333Z"/> </g> </g> <g id="Group_146" data-name="Group 146"> <g id="Group_145" data-name="Group 145"> <path id="Path_66" data-name="Path 66" d="M51.2,264.533a51.2,51.2,0,1,0,51.2,51.2A51.257,51.257,0,0,0,51.2,264.533Zm0,85.334a34.133,34.133,0,1,1,34.133-34.133A34.167,34.167,0,0,1,51.2,349.867Z"/> </g> </g> <g id="Group_148" data-name="Group 148"> <g id="Group_147" data-name="Group 147"> <path id="Path_67" data-name="Path 67" d="M307.2,409.6a51.2,51.2,0,1,0,51.2,51.2A51.257,51.257,0,0,0,307.2,409.6Zm0,85.333A34.133,34.133,0,1,1,341.333,460.8,34.167,34.167,0,0,1,307.2,494.933Z"/> </g> </g> <g id="Group_156" data-name="Group 156"> <g id="Group_155" data-name="Group 155"> <rect id="Rectangle_13" data-name="Rectangle 13" width="17.067" height="95.406" transform="matrix(0.984, -0.179, 0.179, 0.984, 281.762, 325.812)"/> </g> </g> <g id="Group_160" data-name="Group 160"> <g id="Group_159" data-name="Group 159"> <rect id="Rectangle_15" data-name="Rectangle 15" width="97.303" height="17.068" transform="translate(91.633 307.496) rotate(-15.261)"/> </g> </g> <g id="Group_162" data-name="Group 162"> <g id="Group_161" data-name="Group 161"> <rect id="Rectangle_16" data-name="Rectangle 16" width="17.067" height="118.549" transform="matrix(0.864, -0.504, 0.504, 0.864, 146.226, 89.578)"/> </g> </g> <g id="Group_164" data-name="Group 164"> <g id="Group_163" data-name="Group 163"> <rect id="Rectangle_17" data-name="Rectangle 17" width="106.92" height="17.066" transform="matrix(0.479, -0.878, 0.878, 0.479, 291.179, 183.676)"/> </g> </g> <g id="Group_170" data-name="Group 170"> <g id="Group_169" data-name="Group 169"> <path id="Path_71" data-name="Path 71" d="M256,204.8A51.257,51.257,0,0,0,204.8,256a8.533,8.533,0,0,0,17.066,0A34.167,34.167,0,0,1,256,221.867a8.533,8.533,0,0,0,0-17.067Z"/> </g> </g> </svg>