<?xml version="1.0" encoding="UTF-8"?>
<svg xmlns="http://www.w3.org/2000/svg" viewBox="0 0 512.003 475.131"> <defs> <style> .cls-1 { fill: #ff0363; } </style> </defs> <g id="signal" transform="translate(0 -18.435)"> <g id="Group_172" data-name="Group 172"> <g id="Group_171" data-name="Group 171"> <path id="Path_72" data-name="Path 72" class="cls-1" d="M256.01,223.256a51.2,51.2,0,1,0,51.2,51.2A51.257,51.257,0,0,0,256.01,223.256Zm0,85.334a34.133,34.133,0,1,1,34.133-34.133A34.167,34.167,0,0,1,256.01,308.59Z"/> </g> </g> <g id="Group_174" data-name="Group 174"> <g id="Group_173" data-name="Group 173"> <path id="Path_73" data-name="Path 73" d="M375.306,268.4c-3.038-61.082-53.3-110.857-114.432-113.306A119.584,119.584,0,0,0,136.526,274.464a120.1,120.1,0,0,0,68.1,107.75,25.456,25.456,0,0,0,30.916-7.586l.137-.179a25.484,25.484,0,0,0,4.642-21.606,24.887,24.887,0,0,0-13.551-16.8A68.585,68.585,0,0,1,187.735,274.7c-.128-36.617,29.508-67.337,66.074-68.48a68.356,68.356,0,0,1,70.46,68.233,68.64,68.64,0,0,1-38.647,61.406,25.687,25.687,0,0,0-13.909,17.28,25.349,25.349,0,0,0,4.762,21.487,25.722,25.722,0,0,0,20.292,9.975,24.381,24.381,0,0,0,10.573-2.381A119.307,119.307,0,0,0,375.306,268.4Zm-75.315,98.423a8.356,8.356,0,0,1-10.155-2.807,8.125,8.125,0,0,1-1.519-6.955,8.7,8.7,0,0,1,4.727-5.828,85.791,85.791,0,0,0,48.29-76.774,85.412,85.412,0,0,0-85.3-85.334c-.913,0-1.835.017-2.756.034-45.713,1.434-82.773,39.834-82.611,85.6a85.787,85.787,0,0,0,48.768,76.7,7.806,7.806,0,0,1,4.284,5.342,8.561,8.561,0,0,1-1.587,7.253l-.111.154a8.321,8.321,0,0,1-10.027,2.6A102.976,102.976,0,0,1,153.6,274.449,102.526,102.526,0,0,1,260.2,172.134c52.386,2.1,95.471,44.757,98.074,97.109A102.292,102.292,0,0,1,299.991,366.821Z"/> </g> </g> <g id="Group_176" data-name="Group 176"> <g id="Group_175" data-name="Group 175"> <path id="Path_74" data-name="Path 74" d="M443.718,270.778C441.832,173.191,364.093,92.483,266.745,87.03A187.937,187.937,0,0,0,68.277,274.465c0,65.57,35.191,127.3,91.844,161.109a25.327,25.327,0,0,0,12.988,3.584,25.591,25.591,0,0,0,25.156-30.328,25.326,25.326,0,0,0-11.9-17.007A135.843,135.843,0,0,1,120.109,261.2c6.306-66.534,61.483-119.441,128.341-123.068a136.687,136.687,0,0,1,144.1,136.329,137.315,137.315,0,0,1-66.927,117.393,25.247,25.247,0,0,0-11.853,16.964A25.564,25.564,0,0,0,351.9,435.582C409.832,401.014,445.015,337.867,443.718,270.778ZM343.144,420.922a8.495,8.495,0,0,1-12.629-8.908,8.059,8.059,0,0,1,3.823-5.487A154.485,154.485,0,0,0,409.6,274.465,153.768,153.768,0,0,0,256.113,120.856c-2.85,0-5.717.077-8.61.247-75.23,4.079-137.3,63.616-144.4,138.5-5.666,59.853,22.886,116.147,74.513,146.9a8.072,8.072,0,0,1,3.866,5.53,8.32,8.32,0,0,1-1.613,6.741,8.454,8.454,0,0,1-11.008,2.15c-51.524-30.746-83.524-86.869-83.524-146.458A170.864,170.864,0,0,1,265.782,104.069c88.491,4.958,159.147,78.328,160.862,167.04A171.163,171.163,0,0,1,343.144,420.922Z"/> </g> </g> <g id="Group_178" data-name="Group 178"> <g id="Group_177" data-name="Group 177"> <path id="Path_75" data-name="Path 75" d="M431.276,87.849C379.248,38.97,311.22,14.463,239.634,18.96,107.462,27.186,2.211,137.522.035,270.147-1.424,359.09,42.343,441.078,117.112,489.462a25.8,25.8,0,0,0,34.321-6,25.043,25.043,0,0,0,4.932-19.738,25.958,25.958,0,0,0-11.477-17.357C77.517,402.677,42.36,325.937,53.121,246.108c12.3-91.23,87.74-164.89,179.388-175.138,59.085-6.579,115.849,11.46,159.881,50.842A204.543,204.543,0,0,1,367,446.445a25.63,25.63,0,0,0,14.046,47.121,25.185,25.185,0,0,0,13.764-4.053A255.977,255.977,0,0,0,431.276,87.849ZM385.537,475.194a8.593,8.593,0,0,1-11.486-2.185,8.186,8.186,0,0,1-1.621-6.46,8.555,8.555,0,0,1,3.849-5.777A221.986,221.986,0,0,0,230.614,54.014C131.3,65.117,49.537,144.946,36.208,243.83,24.552,330.281,62.636,413.379,135.6,460.7a8.71,8.71,0,0,1,3.934,5.9,8.356,8.356,0,0,1-1.766,6.639,8.57,8.57,0,0,1-11.392,1.911c-69.8-45.166-110.66-121.693-109.286-204.7C19.133,146.661,117.344,43.69,240.693,36.01c66.773-4.122,130.338,18.671,178.884,64.3a238.9,238.9,0,0,1-34.04,374.885Z"/> </g> </g> </g> </svg>